<svg xmlns="http://www.w3.org/2000/svg" xmlns:xlink="http://www.w3.org/1999/xlink" xmlns:lucid="lucid" width="1303" height="596"><g transform="translate(-133 0)" lucid:page-tab-id="0_0"><path d="M0 0h1870.87v1322.83H0z" fill="#fff"/><path d="M1170 100c16.57 0 30 13.43 30 30v100c0 16.57-13.43 30-30 30H990c-16.57 0-30-13.43-30-30V130c0-16.57 13.43-30 30-30z" stroke="#d7987d" stroke-width="2" fill="url(#a)"/><path d="M1170 340c16.57 0 30 13.43 30 30v100c0 16.57-13.43 30-30 30H990c-16.57 0-30-13.43-30-30V370c0-16.57 13.43-30 30-30z" stroke="#d7987d" stroke-width="2" fill="url(#b)"/><path d="M480 66a6 6 0 0 1 6-6h748a6 6 0 0 1 6 6v468a6 6 0 0 1-6 6H486a6 6 0 0 1-6-6z" stroke="#d7987d" stroke-width="2" fill-opacity="0"/><path d="M320 260c22 0 40 17.92 40 40s-18 40-40 40H200c-22 0-40-17.92-40-40s18-40 40-40z" stroke="#d7987d" stroke-width="2" fill="url(#c)"/><path d="M734.73 182.87A3.56 3.56 0 0 1 740 186v228a3.56 3.56 0 0 1-5.27 3.13L525.27 302.87a3.27 3.27 0 0 1 0-5.74z" stroke="#d7987d" stroke-width="2" fill="#f9ded4"/><use xlink:href="#d" transform="matrix(6.123233995736766e-17,1,-1,6.123233995736766e-17,735,185) translate(97.10376543209875 96.52777777777777)"/><use xlink:href="#e" transform="matrix(6.123233995736766e-17,1,-1,6.123233995736766e-17,735,185) translate(71.2087037037037 123.19444444444446)"/><path d="M741.96 300.02l4.07.1 4.85.3 4.68.48 4.53.67 4.4.84 4.34 1.03 4.28 1.2 4.25 1.37 4.25 1.6 4.3 1.8 4.35 2.04 4.48 2.35 4.65 2.67 4.9 3.12 5.3 3.66 5.84 4.45 6.8 5.64 8.78 7.94 46.7 45.38 6.8 5.63 5.85 4.44 5.28 3.67 4.9 3.13 4.66 2.68 4.5 2.36 4.35 2.05 4.3 1.8 4.25 1.6 4.25 1.38 4.27 1.2 4.34 1 4.4.85.72.1" stroke="#92c3be" stroke-width="2" stroke-linejoin="round" fill="none"/><path d="M742 299.02l-.03 2-1-.02v-2z" stroke="#92c3be" stroke-width=".05" fill="#92c3be"/><path d="M955.77 419.74l-14.58 3.5.72-9.25z" stroke="#92c3be" stroke-width="2" fill="#92c3be"/><path d="M741.96 299.98l4.07-.1 4.85-.3 4.68-.48 4.53-.67 4.4-.84 4.34-1.03 4.28-1.2 4.25-1.37 4.25-1.6 4.3-1.8 4.35-2.04 4.48-2.35 4.65-2.67 4.9-3.12 5.3-3.66 5.84-4.45 6.8-5.64 8.78-7.94 46.7-45.38 6.8-5.63 5.85-4.44 5.28-3.67 4.9-3.13 4.66-2.68 4.5-2.36 4.35-2.05 4.3-1.8 4.25-1.6 4.25-1.38 4.27-1.2 4.34-1 4.4-.85.72-.1" stroke="#92c3be" stroke-width="2" stroke-linejoin="round" fill="none"/><path d="M742 300.98l-1.04.02v-2l1-.02z" stroke="#92c3be" stroke-width=".05" fill="#92c3be"/><path d="M955.77 180.26L941.92 186l-.73-9.23z" stroke="#92c3be" stroke-width="2" fill="#92c3be"/><path d="M1081 320.5h-2v-17.73h2zm0-39.06h-2V262h2z" stroke="#92c3be" stroke-width=".05" fill="#92c3be"/><path d="M1081 262.03h-2V261h2z" fill="#92c3be"/><path d="M1081.03 262.05h-2.06v-1.07h2.06zm-2-1.03v.98h1.94v-.98z" stroke="#92c3be" stroke-width=".05" fill="#92c3be"/><path d="M1080 335.76l-4.64-14.26h9.28z" fill="#92c3be"/><path d="M1080 339l-6-18.5h12zm-3.26-16.5l3.26 10.03 3.26-10.03z" stroke="#92c3be" stroke-width=".05" fill="#92c3be"/><use xlink:href="#f" transform="matrix(1,0,0,1,992.7901234567903,281.4353026300961) translate(0 14.222222222222223)"/><use xlink:href="#g" transform="matrix(1,0,0,1,992.7901234567903,281.4353026300961) translate(43.358024691358025 14.222222222222223)"/><path d="M960 156a6 6 0 0 1 6-6h228a6 6 0 0 1 6 6v48a6 6 0 0 1-6 6H966a6 6 0 0 1-6-6z" stroke="#000" stroke-opacity="0" fill="#fff" fill-opacity="0"/><use xlink:href="#h" transform="matrix(1,0,0,1,965,155) translate(67.80864197530863 30.27777777777778)"/><path d="M960 396a6 6 0 0 1 6-6h228a6 6 0 0 1 6 6v48a6 6 0 0 1-6 6H966a6 6 0 0 1-6-6z" stroke="#000" stroke-opacity="0" fill="#fff" fill-opacity="0"/><use xlink:href="#i" transform="matrix(1,0,0,1,965,395) translate(48.425925925925924 30.27777777777778)"/><path d="M480 86a6 6 0 0 1 6-6h228a6 6 0 0 1 6 6v48a6 6 0 0 1-6 6H486a6 6 0 0 1-6-6z" stroke="#000" stroke-opacity="0" fill="#fff" fill-opacity="0"/><use xlink:href="#j" transform="matrix(1,0,0,1,485,85) translate(37.9320987654321 30.27777777777778)"/><use xlink:href="#k" transform="matrix(1,0,0,1,485,85) translate(126.75925925925925 30.27777777777778)"/><path d="M362 300h142.05" stroke="#92c3be" stroke-width="2" stroke-linejoin="round" fill="none"/><path d="M362.03 301h-1.1l.07-1-.03-1h1.06z" stroke="#92c3be" stroke-width=".05" fill="#92c3be"/><path d="M519.32 300l-14.27 4.64v-9.28z" stroke="#92c3be" stroke-width="2" fill="#92c3be"/><path d="M140 276a6 6 0 0 1 6-6h228a6 6 0 0 1 6 6v48a6 6 0 0 1-6 6H146a6 6 0 0 1-6-6z" stroke="#000" stroke-opacity="0" fill="url(#l)"/><use xlink:href="#m" transform="matrix(1,0,0,1,145,275) translate(86.69753086419753 30.27777777777778)"/><path d="M1200 106a6 6 0 0 1 6-6h108a6 6 0 0 1 6 6v388a6 6 0 0 1-6 6h-108a6 6 0 0 1-6-6z" fill="none"/><path d="M1200 500c14.73 0 26.67-11.94 26.67-26.67V326.67c0-14.73 11.94-26.67 26.66-26.67-14.72 0-26.66-11.94-26.66-26.67V126.67c0-14.73-11.94-26.67-26.67-26.67" stroke="#d7987d" stroke-width="2" fill="none"/><g><use xlink:href="#n" transform="matrix(1,0,0,1,1268.3333333333335,105) translate(0 199.44444444444443)"/></g><defs><linearGradient gradientUnits="userSpaceOnUse" id="a" x1="1200" y1="260" x2="1157.42" y2="100"><stop offset="0%" stop-color="#fff"/><stop offset="46.01%" stop-color="#fff3d9"/><stop offset="100%" stop-color="#ffdd93"/></linearGradient><linearGradient gradientUnits="userSpaceOnUse" id="b" x1="1200" y1="500" x2="1157.68" y2="340"><stop offset="0%" stop-color="#fff"/><stop offset="43.05%" stop-color="#e3fae3"/><stop offset="100%" stop-color="#a7efa7"/></linearGradient><linearGradient gradientUnits="userSpaceOnUse" id="c" x1="360" y1="340" x2="160" y2="288"><stop offset="0%" stop-color="#c2e0dd"/><stop offset="56.45%" stop-color="#92c3be"/><stop offset="100%" stop-color="#66aba4"/></linearGradient><path fill="#2d6b75" d="M205 0l-28-72H64L36 0H1l101-248h38L239 0h-34zm-38-99l-47-123c-12 45-31 82-46 123h93" id="o"/><path fill="#2d6b75" d="M30-248c87 1 191-15 191 75 0 78-77 80-158 76V0H30v-248zm33 125c57 0 124 11 124-50 0-59-68-47-124-48v98" id="p"/><path fill="#2d6b75" d="M33 0v-248h34V0H33" id="q"/><g id="d"><use transform="matrix(0.06172839506172839,0,0,0.06172839506172839,0,0)" xlink:href="#o"/><use transform="matrix(0.06172839506172839,0,0,0.06172839506172839,14.814814814814813,0)" xlink:href="#p"/><use transform="matrix(0.06172839506172839,0,0,0.06172839506172839,29.629629629629626,0)" xlink:href="#q"/></g><path fill="#2d6b75" d="M143 4C61 4 22-44 18-125c-5-107 100-154 193-111 17 8 29 25 37 43l-32 9c-13-25-37-40-76-40-61 0-88 39-88 99 0 61 29 100 91 101 35 0 62-11 79-27v-45h-74v-28h105v86C228-13 192 4 143 4" id="r"/><path fill="#2d6b75" d="M141-36C126-15 110 5 73 4 37 3 15-17 15-53c-1-64 63-63 125-63 3-35-9-54-41-54-24 1-41 7-42 31l-33-3c5-37 33-52 76-52 45 0 72 20 72 64v82c-1 20 7 32 28 27v20c-31 9-61-2-59-35zM48-53c0 20 12 33 32 33 41-3 63-29 60-74-43 2-92-5-92 41" id="s"/><path fill="#2d6b75" d="M59-47c-2 24 18 29 38 22v24C64 9 27 4 27-40v-127H5v-23h24l9-43h21v43h35v23H59v120" id="t"/><path fill="#2d6b75" d="M100-194c63 0 86 42 84 106H49c0 40 14 67 53 68 26 1 43-12 49-29l28 8c-11 28-37 45-77 45C44 4 14-33 15-96c1-61 26-98 85-98zm52 81c6-60-76-77-97-28-3 7-6 17-6 28h103" id="u"/><path fill="#2d6b75" d="M206 0h-36l-40-164L89 0H53L-1-190h32L70-26l43-164h34l41 164 42-164h31" id="v"/><path fill="#2d6b75" d="M179-190L93 31C79 59 56 82 12 73V49c39 6 53-20 64-50L1-190h34L92-34l54-156h33" id="w"/><g id="e"><use transform="matrix(0.06172839506172839,0,0,0.06172839506172839,0,0)" xlink:href="#r"/><use transform="matrix(0.06172839506172839,0,0,0.06172839506172839,17.28395061728395,0)" xlink:href="#s"/><use transform="matrix(0.06172839506172839,0,0,0.06172839506172839,29.629629629629626,0)" xlink:href="#t"/><use transform="matrix(0.06172839506172839,0,0,0.06172839506172839,35.80246913580247,0)" xlink:href="#u"/><use transform="matrix(0.06172839506172839,0,0,0.06172839506172839,48.148148148148145,0)" xlink:href="#v"/><use transform="matrix(0.06172839506172839,0,0,0.06172839506172839,64.1358024691358,0)" xlink:href="#s"/><use transform="matrix(0.06172839506172839,0,0,0.06172839506172839,76.48148148148148,0)" xlink:href="#w"/></g><path fill="#2d6b75" d="M24 0v-248h52V0H24" id="x"/><path fill="#2d6b75" d="M135-194c87-1 58 113 63 194h-50c-7-57 23-157-34-157-59 0-34 97-39 157H25l-1-190h47c2 12-1 28 3 38 12-26 28-41 61-42" id="y"/><path fill="#2d6b75" d="M115-3C79 11 28 4 28-45v-112H4v-33h27l15-45h31v45h36v33H77v99c-1 23 16 31 38 25v30" id="z"/><path fill="#2d6b75" d="M185-48c-13 30-37 53-82 52C43 2 14-33 14-96s30-98 90-98c62 0 83 45 84 108H66c0 31 8 55 39 56 18 0 30-7 34-22zm-45-69c5-46-57-63-70-21-2 6-4 13-4 21h74" id="A"/><path fill="#2d6b75" d="M135-150c-39-12-60 13-60 57V0H25l-1-190h47c2 13-1 29 3 40 6-28 27-53 61-41v41" id="B"/><g id="f"><use transform="matrix(0.04938271604938272,0,0,0.04938271604938272,0,0)" xlink:href="#x"/><use transform="matrix(0.04938271604938272,0,0,0.04938271604938272,4.938271604938272,0)" xlink:href="#y"/><use transform="matrix(0.04938271604938272,0,0,0.04938271604938272,15.753086419753087,0)" xlink:href="#z"/><use transform="matrix(0.04938271604938272,0,0,0.04938271604938272,21.62962962962963,0)" xlink:href="#A"/><use transform="matrix(0.04938271604938272,0,0,0.04938271604938272,31.506172839506174,0)" xlink:href="#B"/></g><path fill="#2d6b75" d="M190-63c-7 42-38 67-86 67-59 0-84-38-90-98-12-110 154-137 174-36l-49 2c-2-19-15-32-35-32-30 0-35 28-38 64-6 74 65 87 74 30" id="C"/><path fill="#2d6b75" d="M110-194c64 0 96 36 96 99 0 64-35 99-97 99-61 0-95-36-95-99 0-62 34-99 96-99zm-1 164c35 0 45-28 45-65 0-40-10-65-43-65-34 0-45 26-45 65 0 36 10 65 43 65" id="D"/><path fill="#2d6b75" d="M220-157c-53 9-28 100-34 157h-49v-107c1-27-5-49-29-50C55-147 81-57 75 0H25l-1-190h47c2 12-1 28 3 38 10-53 101-56 108 0 13-22 24-43 59-42 82 1 51 116 57 194h-49v-107c-1-25-5-48-29-50" id="E"/><path fill="#2d6b75" d="M85 4C-2 5 27-109 22-190h50c7 57-23 150 33 157 60-5 35-97 40-157h50l1 190h-47c-2-12 1-28-3-38-12 25-28 42-61 42" id="F"/><path fill="#2d6b75" d="M25-224v-37h50v37H25zM25 0v-190h50V0H25" id="G"/><path fill="#2d6b75" d="M133-34C117-15 103 5 69 4 32 3 11-16 11-54c-1-60 55-63 116-61 1-26-3-47-28-47-18 1-26 9-28 27l-52-2c7-38 36-58 82-57s74 22 75 68l1 82c-1 14 12 18 25 15v27c-30 8-71 5-69-32zm-48 3c29 0 43-24 42-57-32 0-66-3-65 30 0 17 8 27 23 27" id="H"/><g id="g"><use transform="matrix(0.04938271604938272,0,0,0.04938271604938272,0,0)" xlink:href="#C"/><use transform="matrix(0.04938271604938272,0,0,0.04938271604938272,9.876543209876544,0)" xlink:href="#D"/><use transform="matrix(0.04938271604938272,0,0,0.04938271604938272,20.69135802469136,0)" xlink:href="#E"/><use transform="matrix(0.04938271604938272,0,0,0.04938271604938272,36.49382716049383,0)" xlink:href="#E"/><use transform="matrix(0.04938271604938272,0,0,0.04938271604938272,52.2962962962963,0)" xlink:href="#F"/><use transform="matrix(0.04938271604938272,0,0,0.04938271604938272,63.111111111111114,0)" xlink:href="#y"/><use transform="matrix(0.04938271604938272,0,0,0.04938271604938272,73.92592592592592,0)" xlink:href="#G"/><use transform="matrix(0.04938271604938272,0,0,0.04938271604938272,78.8641975308642,0)" xlink:href="#C"/><use transform="matrix(0.04938271604938272,0,0,0.04938271604938272,88.74074074074075,0)" xlink:href="#H"/><use transform="matrix(0.04938271604938272,0,0,0.04938271604938272,98.61728395061729,0)" xlink:href="#z"/><use transform="matrix(0.04938271604938272,0,0,0.04938271604938272,104.49382716049384,0)" xlink:href="#G"/><use transform="matrix(0.04938271604938272,0,0,0.04938271604938272,109.4320987654321,0)" xlink:href="#D"/><use transform="matrix(0.04938271604938272,0,0,0.04938271604938272,120.2469135802469,0)" xlink:href="#y"/></g><path fill="#2d6b75" d="M127-220V0H93v-220H8v-28h204v28h-85" id="I"/><path fill="#2d6b75" d="M114-163C36-179 61-72 57 0H25l-1-190h30c1 12-1 29 2 39 6-27 23-49 58-41v29" id="J"/><path fill="#2d6b75" d="M24-231v-30h32v30H24zM24 0v-190h32V0H24" id="K"/><path fill="#2d6b75" d="M101-234c-31-9-42 10-38 44h38v23H63V0H32v-167H5v-23h27c-7-52 17-82 69-68v24" id="L"/><path fill="#2d6b75" d="M30-248c118-7 216 8 213 122C240-48 200 0 122 0H30v-248zM63-27c89 8 146-16 146-99s-60-101-146-95v194" id="M"/><g id="h"><use transform="matrix(0.06172839506172839,0,0,0.06172839506172839,0,0)" xlink:href="#I"/><use transform="matrix(0.06172839506172839,0,0,0.06172839506172839,11.049382716049381,0)" xlink:href="#s"/><use transform="matrix(0.06172839506172839,0,0,0.06172839506172839,23.39506172839506,0)" xlink:href="#J"/><use transform="matrix(0.06172839506172839,0,0,0.06172839506172839,30.74074074074074,0)" xlink:href="#K"/><use transform="matrix(0.06172839506172839,0,0,0.06172839506172839,35.617283950617285,0)" xlink:href="#L"/><use transform="matrix(0.06172839506172839,0,0,0.06172839506172839,41.358024691358025,0)" xlink:href="#L"/><use transform="matrix(0.06172839506172839,0,0,0.06172839506172839,47.53086419753087,0)" xlink:href="#M"/><use transform="matrix(0.06172839506172839,0,0,0.06172839506172839,63.51851851851851,0)" xlink:href="#s"/><use transform="matrix(0.06172839506172839,0,0,0.06172839506172839,75.8641975308642,0)" xlink:href="#t"/><use transform="matrix(0.06172839506172839,0,0,0.06172839506172839,82.03703703703704,0)" xlink:href="#s"/></g><path fill="#2d6b75" d="M135-143c-3-34-86-38-87 0 15 53 115 12 119 90S17 21 10-45l28-5c4 36 97 45 98 0-10-56-113-15-118-90-4-57 82-63 122-42 12 7 21 19 24 35" id="N"/><path fill="#2d6b75" d="M96-169c-40 0-48 33-48 73s9 75 48 75c24 0 41-14 43-38l32 2c-6 37-31 61-74 61-59 0-76-41-82-99-10-93 101-131 147-64 4 7 5 14 7 22l-32 3c-4-21-16-35-41-35" id="O"/><path fill="#2d6b75" d="M100-194c62-1 85 37 85 99 1 63-27 99-86 99S16-35 15-95c0-66 28-99 85-99zM99-20c44 1 53-31 53-75 0-43-8-75-51-75s-53 32-53 75 10 74 51 75" id="P"/><path fill="#2d6b75" d="M84 4C-5 8 30-112 23-190h32v120c0 31 7 50 39 49 72-2 45-101 50-169h31l1 190h-30c-1-10 1-25-2-33-11 22-28 36-60 37" id="Q"/><path fill="#2d6b75" d="M117-194c89-4 53 116 60 194h-32v-121c0-31-8-49-39-48C34-167 62-67 57 0H25l-1-190h30c1 10-1 24 2 32 11-22 29-35 61-36" id="R"/><g id="i"><use transform="matrix(0.06172839506172839,0,0,0.06172839506172839,0,0)" xlink:href="#M"/><use transform="matrix(0.06172839506172839,0,0,0.06172839506172839,15.987654320987653,0)" xlink:href="#K"/><use transform="matrix(0.06172839506172839,0,0,0.06172839506172839,20.864197530864196,0)" xlink:href="#N"/><use transform="matrix(0.06172839506172839,0,0,0.06172839506172839,31.975308641975307,0)" xlink:href="#O"/><use transform="matrix(0.06172839506172839,0,0,0.06172839506172839,43.08641975308642,0)" xlink:href="#P"/><use transform="matrix(0.06172839506172839,0,0,0.06172839506172839,55.432098765432094,0)" xlink:href="#Q"/><use transform="matrix(0.06172839506172839,0,0,0.06172839506172839,67.77777777777777,0)" xlink:href="#R"/><use transform="matrix(0.06172839506172839,0,0,0.06172839506172839,80.12345679012346,0)" xlink:href="#t"/><use transform="matrix(0.06172839506172839,0,0,0.06172839506172839,86.29629629629629,0)" xlink:href="#M"/><use transform="matrix(0.06172839506172839,0,0,0.06172839506172839,102.28395061728395,0)" xlink:href="#s"/><use transform="matrix(0.06172839506172839,0,0,0.06172839506172839,114.62962962962963,0)" xlink:href="#t"/><use transform="matrix(0.06172839506172839,0,0,0.06172839506172839,120.80246913580247,0)" xlink:href="#s"/></g><path fill="#2d6b75" d="M30 0v-248h187v28H63v79h144v27H63v87h162V0H30" id="S"/><path fill="#2d6b75" d="M85-194c31 0 48 13 60 33l-1-100h32l1 261h-30c-2-10 0-23-3-31C134-8 116 4 85 4 32 4 16-35 15-94c0-66 23-100 70-100zm9 24c-40 0-46 34-46 75 0 40 6 74 45 74 42 0 51-32 51-76 0-42-9-74-50-73" id="T"/><path fill="#2d6b75" d="M143 0L79-87 56-68V0H24v-261h32v163l83-92h37l-77 82L181 0h-38" id="U"/><g id="j"><use transform="matrix(0.06172839506172839,0,0,0.06172839506172839,0,0)" xlink:href="#S"/><use transform="matrix(0.06172839506172839,0,0,0.06172839506172839,14.814814814814813,0)" xlink:href="#T"/><use transform="matrix(0.06172839506172839,0,0,0.06172839506172839,27.160493827160494,0)" xlink:href="#Q"/><use transform="matrix(0.06172839506172839,0,0,0.06172839506172839,39.50617283950617,0)" xlink:href="#J"/><use transform="matrix(0.06172839506172839,0,0,0.06172839506172839,46.85185185185185,0)" xlink:href="#u"/><use transform="matrix(0.06172839506172839,0,0,0.06172839506172839,59.197530864197525,0)" xlink:href="#U"/><use transform="matrix(0.06172839506172839,0,0,0.06172839506172839,70.30864197530863,0)" xlink:href="#s"/></g><path fill="#2d6b75" d="M185-189c-5-48-123-54-124 2 14 75 158 14 163 119 3 78-121 87-175 55-17-10-28-26-33-46l33-7c5 56 141 63 141-1 0-78-155-14-162-118-5-82 145-84 179-34 5 7 8 16 11 25" id="V"/><path fill="#2d6b75" d="M108 0H70L1-190h34L89-25l56-165h34" id="W"/><g id="k"><use transform="matrix(0.06172839506172839,0,0,0.06172839506172839,0,0)" xlink:href="#V"/><use transform="matrix(0.06172839506172839,0,0,0.06172839506172839,14.814814814814813,0)" xlink:href="#u"/><use transform="matrix(0.06172839506172839,0,0,0.06172839506172839,27.160493827160494,0)" xlink:href="#J"/><use transform="matrix(0.06172839506172839,0,0,0.06172839506172839,34.50617283950617,0)" xlink:href="#W"/><use transform="matrix(0.06172839506172839,0,0,0.06172839506172839,45.61728395061728,0)" xlink:href="#u"/><use transform="matrix(0.06172839506172839,0,0,0.06172839506172839,57.962962962962955,0)" xlink:href="#J"/></g><linearGradient gradientUnits="userSpaceOnUse" id="l" x1="140" y1="270" x2="140" y2="330"><stop offset="0%" stop-color="#fff" stop-opacity="0"/><stop offset="20%" stop-color="#fff" stop-opacity="0"/><stop offset="100%" stop-color="#dbdbdb" stop-opacity="0"/></linearGradient><path fill="#2d6b75" d="M212-179c-10-28-35-45-73-45-59 0-87 40-87 99 0 60 29 101 89 101 43 0 62-24 78-52l27 14C228-24 195 4 139 4 59 4 22-46 18-125c-6-104 99-153 187-111 19 9 31 26 39 46" id="X"/><path fill="#2d6b75" d="M24 0v-261h32V0H24" id="Y"/><g id="m"><use transform="matrix(0.06172839506172839,0,0,0.06172839506172839,0,0)" xlink:href="#X"/><use transform="matrix(0.06172839506172839,0,0,0.06172839506172839,15.987654320987653,0)" xlink:href="#Y"/><use transform="matrix(0.06172839506172839,0,0,0.06172839506172839,20.864197530864196,0)" xlink:href="#K"/><use transform="matrix(0.06172839506172839,0,0,0.06172839506172839,25.74074074074074,0)" xlink:href="#u"/><use transform="matrix(0.06172839506172839,0,0,0.06172839506172839,38.08641975308642,0)" xlink:href="#R"/><use transform="matrix(0.06172839506172839,0,0,0.06172839506172839,50.432098765432094,0)" xlink:href="#t"/></g><path fill="#2d6b75" d="M240 0l2-218c-23 76-54 145-80 218h-23L58-218 59 0H30v-248h44l77 211c21-75 51-140 76-211h43V0h-30" id="Z"/><g id="n"><use transform="matrix(0.06172839506172839,0,0,0.06172839506172839,0,0)" xlink:href="#Z"/><use transform="matrix(0.06172839506172839,0,0,0.06172839506172839,18.456790123456788,0)" xlink:href="#K"/><use transform="matrix(0.06172839506172839,0,0,0.06172839506172839,23.33333333333333,0)" xlink:href="#O"/><use transform="matrix(0.06172839506172839,0,0,0.06172839506172839,34.44444444444444,0)" xlink:href="#J"/><use transform="matrix(0.06172839506172839,0,0,0.06172839506172839,41.79012345679012,0)" xlink:href="#P"/><use transform="matrix(0.06172839506172839,0,0,0.06172839506172839,54.1358024691358,0)" xlink:href="#N"/><use transform="matrix(0.06172839506172839,0,0,0.06172839506172839,65.24691358024691,0)" xlink:href="#u"/><use transform="matrix(0.06172839506172839,0,0,0.06172839506172839,77.5925925925926,0)" xlink:href="#J"/><use transform="matrix(0.06172839506172839,0,0,0.06172839506172839,84.93827160493828,0)" xlink:href="#W"/><use transform="matrix(0.06172839506172839,0,0,0.06172839506172839,96.0493827160494,0)" xlink:href="#K"/><use transform="matrix(0.06172839506172839,0,0,0.06172839506172839,100.92592592592594,0)" xlink:href="#O"/><use transform="matrix(0.06172839506172839,0,0,0.06172839506172839,112.03703703703705,0)" xlink:href="#u"/><use transform="matrix(0.06172839506172839,0,0,0.06172839506172839,124.38271604938274,0)" xlink:href="#N"/></g></defs></g></svg>